# xmcd
#
# Track frame offsets:
#	150
#	25569
#	52898
#	69335
#	88495
#	115048
#
# Disc length: 2154 seconds
#
# Revision: 1
# Processed by: cddbd v1.5.2PL0 Copyright (c) Steve Scherf et al.
# Submitted via: audiograbber 1.83.01
#
DISCID=42086806
DTITLE=John Mayer - Continuum Disc 2
DYEAR=2007
DGENRE=Alt. Pop
TTITLE0=Vultures
TTITLE1=Belief
TTITLE2=Waiting on the World to Change
TTITLE3=Dreaming with a Broken Heart
TTITLE4=I Don't Need No Doctor
TTITLE5=Gravity
EXTD=
EXTT0=
EXTT1=
EXTT2=
EXTT3=
EXTT4=
EXTT5=
PLAYORDER=
